<svg width="120" height="117" viewBox="0 0 120 117" fill="none" xmlns="http://www.w3.org/2000/svg">
<path d="M30.1115 50.1183L110.168 18.4083" stroke="black"/>
<path d="M30.1616 50.1182L1.00084 34.3693" stroke="black"/>
<path d="M79.928 50.8998L86.3804 64.2157" stroke="black"/>
<path d="M63.8064 68.2622L86.3288 64.1874" stroke="black"/>
<line y1="-0.5" x2="44.4169" y2="-0.5" transform="matrix(0.870198 0.492703 -0.414429 0.910082 1.02277 94.1661)" stroke="black"/>
<path d="M79.8278 94.2219L39.6743 115.995" stroke="black"/>
<path d="M1.0412 94.1142L39.7243 111.305" stroke="black"/>
<path d="M80.5 94.5L39.8361 111.722" stroke="black"/>
<path d="M0.5 94L39.6242 74.7939" stroke="black"/>
<path d="M80.5 94.5L39.5741 74.7939" stroke="black"/>
<path d="M86.2865 64.1387L63.9757 68.1784L79.928 51.0114L86.2865 64.1387Z" fill="black"/>
<path d="M82.8344 62.1979L62.7696 65.8309L77.116 50.3922L82.8344 62.1979Z" fill="white"/>
<path d="M1.15295 94.1103L39.6242 74.8498L79.6927 94.2219L39.7244 111.249L1.15295 94.1103Z" fill="#F0F0F0"/>
<path d="M78.9267 94.6685L39.6743 115.939L39.7044 111.361L78.9267 94.6685Z" fill="black"/>
<path d="M2.05414 94.625L39.7042 111.361L39.6742 115.939L2.05414 94.625Z" fill="#151515"/>
<path d="M109.967 18.5446L39.7594 94.0734L30.2177 50.1316L109.967 18.5446Z" fill="black"/>
<path d="M110.168 18.4083L39.7089 94.2065" stroke="black"/>
<path d="M1.02276 34.3749L39.7149 94.1335" stroke="black"/>
<path d="M30.1195 50.1574L39.6142 93.8757L1.18293 34.5312L30.1195 50.1574Z" fill="#151515"/>
<path d="M30.0609 49.036L40.174 94.9532" stroke="white" stroke-width="2"/>
</svg>
