<svg width="300" height="60" viewBox="0 0 300 60" fill="none" xmlns="http://www.w3.org/2000/svg">
<rect x="123" y="16" width="159" height="28" fill="white"/>
<path d="M0.78 41L8.853 19.043H11.778L19.929 41H18.057L15.444 33.785H5.226L2.574 41H0.78ZM10.335 19.823L5.811 32.225H14.859L10.335 19.823ZM23.1776 41V19.043H30.0026C31.8486 19.043 33.4086 19.225 34.6826 19.589C35.9566 19.953 36.9186 20.59 37.5686 21.5C38.2446 22.384 38.5826 23.619 38.5826 25.205C38.5826 26.193 38.4006 27.116 38.0366 27.974C37.6726 28.832 37.1006 29.521 36.3206 30.041C35.5666 30.561 34.5786 30.821 33.3566 30.821C34.5526 30.821 35.4366 31.081 36.0086 31.601C36.6066 32.095 36.9966 32.732 37.1786 33.512C37.3866 34.266 37.4906 35.059 37.4906 35.891C37.5166 36.723 37.5426 37.49 37.5686 38.192C37.6206 38.868 37.7766 39.375 38.0366 39.713C38.3226 40.025 38.8296 40.051 39.5576 39.791V41.078C39.4276 41.182 39.1676 41.273 38.7776 41.351C38.4136 41.429 38.0106 41.403 37.5686 41.273C37.1266 41.143 36.7496 40.844 36.4376 40.376C36.1256 39.908 35.9696 39.193 35.9696 38.231C35.9696 36.723 35.9046 35.514 35.7746 34.604C35.6706 33.694 35.4236 33.005 35.0336 32.537C34.6696 32.043 34.0846 31.718 33.2786 31.562C32.4986 31.38 31.4326 31.289 30.0806 31.289C28.7286 31.289 27.0256 31.302 24.9716 31.328V41H23.1776ZM24.9716 29.885H30.7046C32.8106 29.885 34.3836 29.573 35.4236 28.949C36.4636 28.299 36.9836 27.077 36.9836 25.283C36.9836 23.905 36.6976 22.891 36.1256 22.241C35.5796 21.565 34.7606 21.123 33.6686 20.915C32.6026 20.707 31.3026 20.603 29.7686 20.603H24.9716V29.885ZM41.2943 20.642V19.043H57.6743V20.642H50.3813V41H48.6263V20.642H41.2943ZM62.7202 41H60.9262V19.043H62.7202V28.871H76.2142V19.043H77.9302V41H76.2142V30.353H62.7202V41ZM91.6241 41.546C88.7641 41.546 86.5541 40.688 84.9941 38.972C83.4601 37.23 82.6931 34.786 82.6931 31.64V19.043H84.4871V31.64C84.4871 34.396 85.1241 36.463 86.3981 37.841C87.6981 39.193 89.4401 39.869 91.6241 39.869C93.9381 39.869 95.7061 39.193 96.9281 37.841C98.1761 36.489 98.8001 34.422 98.8001 31.64V19.043H100.555V31.64C100.555 34.838 99.7881 37.295 98.2541 39.011C96.7461 40.701 94.5361 41.546 91.6241 41.546ZM105.367 41V19.043H112.192C114.038 19.043 115.598 19.225 116.872 19.589C118.146 19.953 119.108 20.59 119.758 21.5C120.434 22.384 120.772 23.619 120.772 25.205C120.772 26.193 120.59 27.116 120.226 27.974C119.862 28.832 119.29 29.521 118.51 30.041C117.756 30.561 116.768 30.821 115.546 30.821C116.742 30.821 117.626 31.081 118.198 31.601C118.796 32.095 119.186 32.732 119.368 33.512C119.576 34.266 119.68 35.059 119.68 35.891C119.706 36.723 119.732 37.49 119.758 38.192C119.81 38.868 119.966 39.375 120.226 39.713C120.512 40.025 121.019 40.051 121.747 39.791V41.078C121.617 41.182 121.357 41.273 120.967 41.351C120.603 41.429 120.2 41.403 119.758 41.273C119.316 41.143 118.939 40.844 118.627 40.376C118.315 39.908 118.159 39.193 118.159 38.231C118.159 36.723 118.094 35.514 117.964 34.604C117.86 33.694 117.613 33.005 117.223 32.537C116.859 32.043 116.274 31.718 115.468 31.562C114.688 31.38 113.622 31.289 112.27 31.289C110.918 31.289 109.215 31.302 107.161 31.328V41H105.367ZM107.161 29.885H112.894C115 29.885 116.573 29.573 117.613 28.949C118.653 28.299 119.173 27.077 119.173 25.283C119.173 23.905 118.887 22.891 118.315 22.241C117.769 21.565 116.95 21.123 115.858 20.915C114.792 20.707 113.492 20.603 111.958 20.603H107.161V29.885Z" fill="white"/>
<path d="M123.991 41V39.557H140.449V41H123.991ZM147.196 41H145.441V19.043H160.378V20.642H147.196V28.481H157.726V30.041H147.196V41ZM165.617 39.479H178.448V41H163.823V19.043H178.097V20.642H165.617V29.105H175.601V30.665H165.617V39.479ZM182.456 41V19.043H184.211V39.44H197.081V41H182.456ZM208.033 39.44V41H200.155V39.44H203.236V20.642H200.155V19.043H208.033V20.642H204.991V39.44H208.033ZM214.945 41H213.19V19.043H221.302C226.138 19.043 228.556 21.318 228.556 25.868C228.556 28 227.919 29.651 226.645 30.821C225.371 31.965 223.59 32.537 221.302 32.537H214.945V41ZM221.146 20.603H214.945V31.016H221.146C223.018 31.016 224.448 30.587 225.436 29.729C226.424 28.871 226.918 27.571 226.918 25.829C226.918 24.035 226.437 22.722 225.475 21.89C224.513 21.032 223.07 20.603 221.146 20.603ZM233.524 39.479H246.355V41H231.73V19.043H246.004V20.642H233.524V29.105H243.508V30.665H233.524V39.479Z" fill="black"/>
</svg>
